<mxfile host="app.diagrams.net" modified="2023-11-08T10:12:59.922Z" agent="Mozilla/5.0 (Windows NT 10.0; Win64; x64) AppleWebKit/537.36 (KHTML, like Gecko) Chrome/109.0.0.0 Safari/537.36" etag="jB2iI7eO7nC3NuTm4Clc" version="22.0.8" type="device">
  <diagram name="Page-1" id="57kGbI-jYKL6K3bxeT4E">
    <mxGraphModel dx="1114" dy="539" grid="1" gridSize="10" guides="1" tooltips="1" connect="1" arrows="1" fold="1" page="1" pageScale="1" pageWidth="850" pageHeight="1100" math="0" shadow="0">
      <root>
        <mxCell id="0" />
        <mxCell id="1" parent="0" />
        <mxCell id="Aypm3f-pibSzZ5fBYllA-2" value="Пассажир" style="shape=umlActor;verticalLabelPosition=bottom;verticalAlign=top;html=1;outlineConnect=0;" parent="1" vertex="1">
          <mxGeometry x="60" y="310" width="30" height="60" as="geometry" />
        </mxCell>
        <mxCell id="Aypm3f-pibSzZ5fBYllA-7" value="Авторизоваться" style="ellipse;whiteSpace=wrap;html=1;" parent="1" vertex="1">
          <mxGeometry x="250" y="290" width="105" height="50" as="geometry" />
        </mxCell>
        <mxCell id="Aypm3f-pibSzZ5fBYllA-10" value="Зарегистрироваться" style="ellipse;whiteSpace=wrap;html=1;" parent="1" vertex="1">
          <mxGeometry x="477.5" y="360" width="130" height="50" as="geometry" />
        </mxCell>
        <mxCell id="Aypm3f-pibSzZ5fBYllA-11" value="Добавить паспорт" style="ellipse;whiteSpace=wrap;html=1;" parent="1" vertex="1">
          <mxGeometry x="610" y="195" width="105" height="50" as="geometry" />
        </mxCell>
        <mxCell id="Aypm3f-pibSzZ5fBYllA-14" value="Привязать карту" style="ellipse;whiteSpace=wrap;html=1;" parent="1" vertex="1">
          <mxGeometry x="550" y="90" width="105" height="50" as="geometry" />
        </mxCell>
        <mxCell id="Aypm3f-pibSzZ5fBYllA-15" value="Посмотреть доступные&lt;br&gt;&amp;nbsp;рейсы" style="ellipse;whiteSpace=wrap;html=1;" parent="1" vertex="1">
          <mxGeometry x="485" y="450" width="122.5" height="70" as="geometry" />
        </mxCell>
        <mxCell id="Aypm3f-pibSzZ5fBYllA-17" value="Зарегистрироваться на рейс" style="ellipse;whiteSpace=wrap;html=1;" parent="1" vertex="1">
          <mxGeometry x="320" y="670" width="105" height="50" as="geometry" />
        </mxCell>
        <mxCell id="Aypm3f-pibSzZ5fBYllA-18" value="Выбрать место&amp;nbsp;" style="ellipse;whiteSpace=wrap;html=1;" parent="1" vertex="1">
          <mxGeometry x="508" y="560" width="105" height="50" as="geometry" />
        </mxCell>
        <mxCell id="Aypm3f-pibSzZ5fBYllA-19" value="Выбрать доп услуги" style="ellipse;whiteSpace=wrap;html=1;" parent="1" vertex="1">
          <mxGeometry x="530" y="650" width="105" height="50" as="geometry" />
        </mxCell>
        <mxCell id="Aypm3f-pibSzZ5fBYllA-21" value="Сдать билет" style="ellipse;whiteSpace=wrap;html=1;" parent="1" vertex="1">
          <mxGeometry x="163.75" y="680" width="105" height="50" as="geometry" />
        </mxCell>
        <mxCell id="Aypm3f-pibSzZ5fBYllA-24" value="" style="endArrow=none;html=1;rounded=0;entryX=0.071;entryY=0.271;entryDx=0;entryDy=0;entryPerimeter=0;exitX=0.5;exitY=0.5;exitDx=0;exitDy=0;exitPerimeter=0;" parent="1" source="Aypm3f-pibSzZ5fBYllA-2" target="Aypm3f-pibSzZ5fBYllA-15" edge="1">
          <mxGeometry width="50" height="50" relative="1" as="geometry">
            <mxPoint x="400" y="410" as="sourcePoint" />
            <mxPoint x="450" y="360" as="targetPoint" />
          </mxGeometry>
        </mxCell>
        <mxCell id="Aypm3f-pibSzZ5fBYllA-25" value="" style="endArrow=none;html=1;rounded=0;exitX=0.5;exitY=0.5;exitDx=0;exitDy=0;exitPerimeter=0;entryX=0;entryY=0.5;entryDx=0;entryDy=0;" parent="1" source="Aypm3f-pibSzZ5fBYllA-2" target="Aypm3f-pibSzZ5fBYllA-10" edge="1">
          <mxGeometry width="50" height="50" relative="1" as="geometry">
            <mxPoint x="400" y="410" as="sourcePoint" />
            <mxPoint x="450" y="360" as="targetPoint" />
          </mxGeometry>
        </mxCell>
        <mxCell id="Aypm3f-pibSzZ5fBYllA-37" value="" style="endArrow=none;html=1;rounded=0;exitX=0.5;exitY=0.5;exitDx=0;exitDy=0;exitPerimeter=0;entryX=0;entryY=0.5;entryDx=0;entryDy=0;" parent="1" source="Aypm3f-pibSzZ5fBYllA-2" target="Aypm3f-pibSzZ5fBYllA-7" edge="1">
          <mxGeometry width="50" height="50" relative="1" as="geometry">
            <mxPoint x="400" y="310" as="sourcePoint" />
            <mxPoint x="450" y="260" as="targetPoint" />
          </mxGeometry>
        </mxCell>
        <mxCell id="Aypm3f-pibSzZ5fBYllA-38" value="" style="endArrow=none;dashed=1;html=1;rounded=0;exitX=0.657;exitY=-0.04;exitDx=0;exitDy=0;exitPerimeter=0;entryX=0.04;entryY=0.74;entryDx=0;entryDy=0;entryPerimeter=0;" parent="1" source="Aypm3f-pibSzZ5fBYllA-17" target="Aypm3f-pibSzZ5fBYllA-18" edge="1">
          <mxGeometry width="50" height="50" relative="1" as="geometry">
            <mxPoint x="400" y="510" as="sourcePoint" />
            <mxPoint x="450" y="460" as="targetPoint" />
          </mxGeometry>
        </mxCell>
        <mxCell id="Aypm3f-pibSzZ5fBYllA-41" value="Extend" style="edgeLabel;html=1;align=center;verticalAlign=middle;resizable=0;points=[];" parent="Aypm3f-pibSzZ5fBYllA-38" vertex="1" connectable="0">
          <mxGeometry x="0.0575" relative="1" as="geometry">
            <mxPoint as="offset" />
          </mxGeometry>
        </mxCell>
        <mxCell id="Aypm3f-pibSzZ5fBYllA-39" value="" style="endArrow=none;dashed=1;html=1;rounded=0;exitX=1;exitY=0;exitDx=0;exitDy=0;entryX=0;entryY=0.5;entryDx=0;entryDy=0;" parent="1" source="Aypm3f-pibSzZ5fBYllA-17" target="Aypm3f-pibSzZ5fBYllA-19" edge="1">
          <mxGeometry width="50" height="50" relative="1" as="geometry">
            <mxPoint x="400" y="510" as="sourcePoint" />
            <mxPoint x="450" y="460" as="targetPoint" />
          </mxGeometry>
        </mxCell>
        <mxCell id="Aypm3f-pibSzZ5fBYllA-42" value="Extend" style="edgeLabel;html=1;align=center;verticalAlign=middle;resizable=0;points=[];" parent="Aypm3f-pibSzZ5fBYllA-39" vertex="1" connectable="0">
          <mxGeometry x="-0.1102" y="-3" relative="1" as="geometry">
            <mxPoint as="offset" />
          </mxGeometry>
        </mxCell>
        <mxCell id="Aypm3f-pibSzZ5fBYllA-40" value="" style="endArrow=none;dashed=1;html=1;rounded=0;exitX=0.707;exitY=0.96;exitDx=0;exitDy=0;exitPerimeter=0;entryX=0.19;entryY=0;entryDx=0;entryDy=0;entryPerimeter=0;" parent="1" source="Aypm3f-pibSzZ5fBYllA-66" target="Aypm3f-pibSzZ5fBYllA-17" edge="1">
          <mxGeometry width="50" height="50" relative="1" as="geometry">
            <mxPoint x="239.03500000000008" y="605" as="sourcePoint" />
            <mxPoint x="450" y="460" as="targetPoint" />
          </mxGeometry>
        </mxCell>
        <mxCell id="Aypm3f-pibSzZ5fBYllA-43" value="Include" style="edgeLabel;html=1;align=center;verticalAlign=middle;resizable=0;points=[];" parent="Aypm3f-pibSzZ5fBYllA-40" vertex="1" connectable="0">
          <mxGeometry x="0.0537" y="-3" relative="1" as="geometry">
            <mxPoint as="offset" />
          </mxGeometry>
        </mxCell>
        <mxCell id="Aypm3f-pibSzZ5fBYllA-44" value="" style="endArrow=none;dashed=1;html=1;rounded=0;exitX=0.5;exitY=1;exitDx=0;exitDy=0;entryX=0.5;entryY=0;entryDx=0;entryDy=0;" parent="1" source="Aypm3f-pibSzZ5fBYllA-66" target="Aypm3f-pibSzZ5fBYllA-21" edge="1">
          <mxGeometry width="50" height="50" relative="1" as="geometry">
            <mxPoint x="216.25" y="605" as="sourcePoint" />
            <mxPoint x="450" y="560" as="targetPoint" />
          </mxGeometry>
        </mxCell>
        <mxCell id="Aypm3f-pibSzZ5fBYllA-51" value="Include" style="edgeLabel;html=1;align=center;verticalAlign=middle;resizable=0;points=[];" parent="Aypm3f-pibSzZ5fBYllA-44" vertex="1" connectable="0">
          <mxGeometry x="0.2" y="4" relative="1" as="geometry">
            <mxPoint as="offset" />
          </mxGeometry>
        </mxCell>
        <mxCell id="Aypm3f-pibSzZ5fBYllA-45" value="Посмотреть историю покупок" style="ellipse;whiteSpace=wrap;html=1;" parent="1" vertex="1">
          <mxGeometry x="355" y="500" width="105" height="50" as="geometry" />
        </mxCell>
        <mxCell id="Aypm3f-pibSzZ5fBYllA-46" value="" style="endArrow=none;html=1;rounded=0;exitX=0.5;exitY=0.5;exitDx=0;exitDy=0;exitPerimeter=0;entryX=0.057;entryY=0.22;entryDx=0;entryDy=0;entryPerimeter=0;" parent="1" source="Aypm3f-pibSzZ5fBYllA-2" target="Aypm3f-pibSzZ5fBYllA-45" edge="1">
          <mxGeometry width="50" height="50" relative="1" as="geometry">
            <mxPoint x="400" y="410" as="sourcePoint" />
            <mxPoint x="450" y="360" as="targetPoint" />
          </mxGeometry>
        </mxCell>
        <mxCell id="Aypm3f-pibSzZ5fBYllA-47" value="Повысить класс обслуживания" style="ellipse;whiteSpace=wrap;html=1;" parent="1" vertex="1">
          <mxGeometry x="490" y="720" width="105" height="50" as="geometry" />
        </mxCell>
        <mxCell id="Aypm3f-pibSzZ5fBYllA-48" value="" style="endArrow=none;dashed=1;html=1;rounded=0;exitX=1;exitY=0.5;exitDx=0;exitDy=0;entryX=0;entryY=0.5;entryDx=0;entryDy=0;" parent="1" source="Aypm3f-pibSzZ5fBYllA-17" target="Aypm3f-pibSzZ5fBYllA-47" edge="1">
          <mxGeometry width="50" height="50" relative="1" as="geometry">
            <mxPoint x="400" y="580" as="sourcePoint" />
            <mxPoint x="450" y="530" as="targetPoint" />
          </mxGeometry>
        </mxCell>
        <mxCell id="Aypm3f-pibSzZ5fBYllA-50" value="Extend" style="edgeLabel;html=1;align=center;verticalAlign=middle;resizable=0;points=[];" parent="Aypm3f-pibSzZ5fBYllA-48" vertex="1" connectable="0">
          <mxGeometry x="-0.0869" relative="1" as="geometry">
            <mxPoint as="offset" />
          </mxGeometry>
        </mxCell>
        <mxCell id="Aypm3f-pibSzZ5fBYllA-53" value="Редактировать профиль" style="ellipse;whiteSpace=wrap;html=1;" parent="1" vertex="1">
          <mxGeometry x="220" y="200" width="105" height="50" as="geometry" />
        </mxCell>
        <mxCell id="Aypm3f-pibSzZ5fBYllA-54" value="Добавить новый метод оплаты" style="ellipse;whiteSpace=wrap;html=1;" parent="1" vertex="1">
          <mxGeometry x="355" y="90" width="105" height="50" as="geometry" />
        </mxCell>
        <mxCell id="Aypm3f-pibSzZ5fBYllA-56" value="Изменить ФИО или данные паспорта" style="ellipse;whiteSpace=wrap;html=1;" parent="1" vertex="1">
          <mxGeometry x="425" y="190" width="115" height="60" as="geometry" />
        </mxCell>
        <mxCell id="Aypm3f-pibSzZ5fBYllA-57" value="" style="endArrow=none;html=1;rounded=0;exitX=0.5;exitY=0.5;exitDx=0;exitDy=0;exitPerimeter=0;entryX=0;entryY=1;entryDx=0;entryDy=0;" parent="1" source="Aypm3f-pibSzZ5fBYllA-2" target="Aypm3f-pibSzZ5fBYllA-53" edge="1">
          <mxGeometry width="50" height="50" relative="1" as="geometry">
            <mxPoint x="400" y="280" as="sourcePoint" />
            <mxPoint x="450" y="230" as="targetPoint" />
          </mxGeometry>
        </mxCell>
        <mxCell id="Aypm3f-pibSzZ5fBYllA-58" value="" style="endArrow=none;dashed=1;html=1;rounded=0;exitX=0.695;exitY=0;exitDx=0;exitDy=0;exitPerimeter=0;entryX=0;entryY=1;entryDx=0;entryDy=0;" parent="1" source="Aypm3f-pibSzZ5fBYllA-53" target="Aypm3f-pibSzZ5fBYllA-54" edge="1">
          <mxGeometry width="50" height="50" relative="1" as="geometry">
            <mxPoint x="400" y="280" as="sourcePoint" />
            <mxPoint x="450" y="230" as="targetPoint" />
          </mxGeometry>
        </mxCell>
        <mxCell id="Aypm3f-pibSzZ5fBYllA-60" value="" style="endArrow=none;dashed=1;html=1;rounded=0;exitX=1;exitY=0.5;exitDx=0;exitDy=0;entryX=0;entryY=0.5;entryDx=0;entryDy=0;" parent="1" source="Aypm3f-pibSzZ5fBYllA-53" target="Aypm3f-pibSzZ5fBYllA-56" edge="1">
          <mxGeometry width="50" height="50" relative="1" as="geometry">
            <mxPoint x="400" y="280" as="sourcePoint" />
            <mxPoint x="450" y="230" as="targetPoint" />
          </mxGeometry>
        </mxCell>
        <mxCell id="Aypm3f-pibSzZ5fBYllA-63" value="Проверить статус рейса" style="ellipse;whiteSpace=wrap;html=1;" parent="1" vertex="1">
          <mxGeometry x="160" y="140" width="105" height="50" as="geometry" />
        </mxCell>
        <mxCell id="Aypm3f-pibSzZ5fBYllA-64" value="" style="endArrow=none;html=1;rounded=0;exitX=0.5;exitY=0.5;exitDx=0;exitDy=0;exitPerimeter=0;entryX=0.295;entryY=0.94;entryDx=0;entryDy=0;entryPerimeter=0;" parent="1" source="Aypm3f-pibSzZ5fBYllA-2" target="Aypm3f-pibSzZ5fBYllA-63" edge="1">
          <mxGeometry width="50" height="50" relative="1" as="geometry">
            <mxPoint x="400" y="280" as="sourcePoint" />
            <mxPoint x="450" y="230" as="targetPoint" />
          </mxGeometry>
        </mxCell>
        <mxCell id="Aypm3f-pibSzZ5fBYllA-66" value="Найти бронирование" style="ellipse;whiteSpace=wrap;html=1;" parent="1" vertex="1">
          <mxGeometry x="163.75" y="550" width="105" height="50" as="geometry" />
        </mxCell>
        <mxCell id="Aypm3f-pibSzZ5fBYllA-67" value="" style="endArrow=none;html=1;rounded=0;exitX=0.5;exitY=0.5;exitDx=0;exitDy=0;exitPerimeter=0;entryX=0.383;entryY=0;entryDx=0;entryDy=0;entryPerimeter=0;" parent="1" source="Aypm3f-pibSzZ5fBYllA-2" target="Aypm3f-pibSzZ5fBYllA-66" edge="1">
          <mxGeometry width="50" height="50" relative="1" as="geometry">
            <mxPoint x="400" y="380" as="sourcePoint" />
            <mxPoint x="450" y="330" as="targetPoint" />
          </mxGeometry>
        </mxCell>
        <mxCell id="GDecGyjCIJgjF_TIxyzb-1" value="" style="endArrow=none;dashed=1;html=1;rounded=0;entryX=0;entryY=0.5;entryDx=0;entryDy=0;exitX=1;exitY=0.5;exitDx=0;exitDy=0;" edge="1" parent="1" source="Aypm3f-pibSzZ5fBYllA-54" target="Aypm3f-pibSzZ5fBYllA-14">
          <mxGeometry width="50" height="50" relative="1" as="geometry">
            <mxPoint x="400" y="270" as="sourcePoint" />
            <mxPoint x="450" y="220" as="targetPoint" />
          </mxGeometry>
        </mxCell>
        <mxCell id="GDecGyjCIJgjF_TIxyzb-2" value="Include" style="edgeLabel;html=1;align=center;verticalAlign=middle;resizable=0;points=[];" vertex="1" connectable="0" parent="GDecGyjCIJgjF_TIxyzb-1">
          <mxGeometry x="-0.0247" y="-3" relative="1" as="geometry">
            <mxPoint as="offset" />
          </mxGeometry>
        </mxCell>
        <mxCell id="GDecGyjCIJgjF_TIxyzb-3" value="" style="endArrow=none;dashed=1;html=1;rounded=0;entryX=0;entryY=0.5;entryDx=0;entryDy=0;exitX=1;exitY=0.5;exitDx=0;exitDy=0;" edge="1" parent="1" source="Aypm3f-pibSzZ5fBYllA-56" target="Aypm3f-pibSzZ5fBYllA-11">
          <mxGeometry width="50" height="50" relative="1" as="geometry">
            <mxPoint x="400" y="270" as="sourcePoint" />
            <mxPoint x="450" y="220" as="targetPoint" />
          </mxGeometry>
        </mxCell>
        <mxCell id="GDecGyjCIJgjF_TIxyzb-4" value="Include" style="edgeLabel;html=1;align=center;verticalAlign=middle;resizable=0;points=[];" vertex="1" connectable="0" parent="GDecGyjCIJgjF_TIxyzb-3">
          <mxGeometry x="0.0182" relative="1" as="geometry">
            <mxPoint as="offset" />
          </mxGeometry>
        </mxCell>
      </root>
    </mxGraphModel>
  </diagram>
</mxfile>
